<svg width="618" height="584" viewBox="0 0 618 584" fill="none" xmlns="http://www.w3.org/2000/svg">
<g filter="url(#filter0_d_384_31)">
<path fill-rule="evenodd" clip-rule="evenodd" d="M545.365 105.579C532.001 95.8223 517.119 92.0258 500.681 94.2657C492.784 95.3287 486.254 97.6446 480.825 100.872C481.015 94.8352 480.56 89.1026 479.193 83.7116C476.346 72.4362 471.031 63.1729 463.248 55.8838C455.465 48.5946 446.126 43.3556 435.23 40.1286C425.359 37.1674 415.299 36.2942 405.049 37.547C394.76 38.7999 385.573 42.2926 377.411 48.1011C374.753 49.9993 372.779 52.4291 370.653 54.7449C369.172 52.1253 367.806 49.4299 365.718 47.0001C359.415 39.711 351.405 34.0923 341.648 30.144C331.891 26.1957 321.527 24.1836 310.669 24.1836C299.546 24.1836 289.068 26.1957 279.349 30.144C269.592 34.0923 261.543 39.711 255.241 47.0001C253.191 49.3539 251.901 52.0115 250.382 54.593C248.977 52.9985 247.8 51.1762 246.168 49.7716C239.486 44.0769 231.628 40.2045 222.592 38.0785C213.595 35.9905 204.521 35.6868 195.372 37.1674C183.755 38.8758 173.314 43.2417 164.013 50.1512C154.75 57.0607 147.916 66.3999 143.436 78.1309C139.298 89.1026 138.805 102.086 141.348 116.627C119.709 113.969 99.5877 120.271 81.175 135.951C62.1549 152.161 52.7397 177.673 53.0055 212.525C53.2333 268.864 63.9392 318.901 85.0473 362.673C106.193 406.408 135.92 440.614 174.226 465.177C212.532 489.778 256.912 502.078 307.328 502.078C353.303 502.078 392.596 493.992 425.246 477.781C457.857 461.608 484.28 438.184 504.401 407.509C524.522 376.91 539.176 338.946 548.326 293.692C553.261 269.775 557.134 246.237 560.019 223.268C562.866 200.262 564.537 175.965 564.992 150.225C565.258 130.218 558.69 115.336 545.365 105.579Z" fill="black"/>
<path fill-rule="evenodd" clip-rule="evenodd" d="M148.42 157.252L157.759 205.467C159.506 214.616 164.061 220.462 171.464 222.892C178.905 225.398 185.625 224.183 191.699 219.362C197.736 214.54 199.786 207.706 197.812 198.785L178.526 106.494C176.286 96.8507 179.095 89.068 186.878 83.1455C194.661 77.2231 203.278 74.9832 212.807 76.4638C222.336 77.9444 228.449 83.5252 231.182 93.1681L236.725 113.175C238.699 120.844 243.331 125.666 250.62 127.64C257.947 129.614 264.894 128.741 271.576 125.058C278.258 121.338 281.599 115.909 281.599 108.733V83.1455C281.599 76.4638 284.37 71.1108 289.951 67.0107C295.494 62.9485 302.251 60.8984 310.148 60.8984C317.817 60.8984 324.423 62.9485 330.003 67.0107C335.546 71.1108 338.317 76.4638 338.317 83.1455V108.733C338.317 115.643 341.658 121.034 348.34 124.868C355.022 128.703 361.969 129.614 369.296 127.64C376.585 125.666 381.217 120.844 383.191 113.175L389.114 92.4088C391.619 83.2594 397.542 77.9444 406.919 76.4638C416.296 74.9832 424.914 77.2231 432.697 83.1455C440.479 89.068 443.365 96.8507 441.391 106.494L435.468 139.864C433.722 148.748 435.468 155.695 440.669 160.631C445.832 165.566 452.134 167.92 459.575 167.654C466.979 167.426 472.559 164.693 476.242 159.492L485.885 143.926C489.34 138.725 494.503 135.726 501.26 134.853C508.056 133.98 514.168 135.384 519.635 139.105C525.064 142.825 527.797 148.14 527.797 155.05C527.797 175.589 526.317 195.254 523.318 214.009C520.356 232.801 516.028 254.403 510.372 278.89L508.132 289.254C499.514 327.826 487.1 359.602 471.079 384.544C455.02 409.525 433.684 428.355 407.109 441.073C380.534 453.829 347.695 460.169 308.667 460.169C265.388 460.169 227.462 449.577 194.85 428.279C162.201 407.057 137.107 377.445 119.567 339.481C102.028 301.554 93.2578 258.389 93.2578 209.908C93.2578 192.635 97.0163 179.347 104.571 170.084C112.088 160.783 121.124 155.771 131.64 154.86C137.828 154.367 143.295 155.392 148.42 157.252Z" fill="white"/>
</g>
<defs>
<filter id="filter0_d_384_31" x="0.34" y="0.783594" width="617.32" height="583.215" filterUnits="userSpaceOnUse" color-interpolation-filters="sRGB">
<feFlood flood-opacity="0" result="BackgroundImageFix"/>
<feColorMatrix in="SourceAlpha" type="matrix" values="0 0 0 0 0 0 0 0 0 0 0 0 0 0 0 0 0 0 127 0" result="hardAlpha"/>
<feOffset dy="29.26"/>
<feGaussianBlur stdDeviation="26.33"/>
<feComposite in2="hardAlpha" operator="out"/>
<feColorMatrix type="matrix" values="0 0 0 0 0 0 0 0 0 0 0 0 0 0 0 0 0 0 0.65 0"/>
<feBlend mode="normal" in2="BackgroundImageFix" result="effect1_dropShadow_384_31"/>
<feBlend mode="normal" in="SourceGraphic" in2="effect1_dropShadow_384_31" result="shape"/>
</filter>
</defs>
</svg>
