<svg width="618" height="686" viewBox="0 0 618 686" fill="none" xmlns="http://www.w3.org/2000/svg">
<g filter="url(#filter0_d_384_35)">
<path fill-rule="evenodd" clip-rule="evenodd" d="M328.132 584.862C298.251 584.862 270.9 579.482 246.848 568.881C222.604 558.184 200.793 541.658 182.058 519.816C163.803 498.518 147.661 471.264 134.05 438.853L72.8146 288.167C68.2989 277.246 67.7864 266.773 71.3093 257.165C75.1526 246.82 82.7749 239.486 93.4078 235.931C97.251 234.554 101.543 233.753 105.802 233.753C111.055 233.753 116.147 234.938 120.983 237.276C128.99 241.183 135.619 248.133 140.711 257.965L191.538 349.53C194.869 355.295 197.367 357.408 198.263 358.049C199.641 358.978 200.986 359.362 202.779 359.362C204.925 359.362 206.238 358.754 207.711 357.088C208.32 356.384 209.217 353.341 208.096 346.744L172.802 121.371C170.368 107.248 174.66 97.4154 178.727 91.7147C184.524 83.5478 192.819 78.3275 202.683 76.598C205.181 76.2778 206.911 76.1496 208.64 76.1496C216.647 76.1496 224.109 78.5196 230.771 83.1315C239.097 88.8963 244.574 97.6716 246.56 108.529L281.405 272.89L283.326 79.8007C283.326 68.8796 286.945 59.2075 293.863 51.9054C300.973 44.3471 310.517 40.3438 321.374 40.3438C332.327 40.3438 341.999 44.219 349.334 51.5851C356.7 58.9193 360.575 68.7194 360.575 79.8968L359.454 273.659L389.783 105.646C391.321 95.2055 396.541 86.206 404.772 80.0889C411.401 75.1568 418.8 72.6587 426.774 72.6587C428.888 72.6587 431.034 72.8509 433.212 73.2032C443.588 74.8045 452.46 80.0249 458.545 88.2237C462.9 94.0526 467.576 104.077 465.014 118.617L437.279 288.871L476.384 177.835C479.586 167.746 485.127 159.868 492.717 154.839C498.963 150.676 505.88 148.562 513.278 148.562C515.072 148.562 516.865 148.69 518.691 148.946C529.26 150.772 537.491 156.024 543.063 164.255C548.444 172.262 550.365 181.806 548.796 192.567L512.318 403.143C502.069 462.328 482.373 507.646 453.773 537.847C424.276 569.041 382.001 584.862 328.132 584.862Z" fill="white"/>
<path fill-rule="evenodd" clip-rule="evenodd" d="M496.643 400.434L533.057 190.243C534.05 183.485 532.993 177.784 529.855 173.172C526.748 168.528 522.296 165.71 516.532 164.717C511.023 163.949 506.027 165.102 501.543 168.08C497.027 171.091 493.632 176.087 491.391 183.101L453.119 291.96C451.357 296.731 448.923 300.094 445.784 302.08C442.678 304.098 438.963 304.738 434.735 303.97C430.732 303.233 427.401 301.151 424.775 297.788C422.149 294.394 421.092 290.582 421.572 286.323L449.371 115.908C450.621 108.67 449.436 102.585 445.784 97.7173C442.165 92.8492 437.105 89.9028 430.604 88.91C424.583 87.8851 419.138 89.1982 414.27 92.8492C409.402 96.4683 406.456 101.657 405.463 108.414L375.422 278.444C374.685 282.704 372.731 286.003 369.593 288.373C366.486 290.775 362.675 291.575 358.159 290.839C353.163 290.07 349.48 288.18 347.078 285.202C344.708 282.191 343.523 278.316 343.523 273.544L344.644 79.8784C344.644 72.8966 342.466 67.1958 338.079 62.8082C333.691 58.4525 328.118 56.2427 321.393 56.2427C314.859 56.2427 309.543 58.4525 305.443 62.8082C301.312 67.1958 299.23 72.8966 299.23 79.8784L298.109 275.049C298.109 279.565 296.54 283.312 293.433 286.323C290.295 289.333 286.612 290.839 282.352 290.839C278.092 290.839 274.537 289.493 271.655 286.867C268.773 284.241 266.819 280.686 265.826 276.17L230.917 111.425C229.668 104.667 226.625 99.6069 221.725 96.2121C216.857 92.8493 211.413 91.5361 205.392 92.2728C199.659 93.2656 195.079 96.148 191.716 100.92C188.321 105.66 187.265 111.681 188.514 118.919L223.807 344.131C225.537 354.636 224.159 362.45 219.676 367.575C215.16 372.731 209.523 375.293 202.766 375.293C197.769 375.293 193.286 373.916 189.282 371.162C185.279 368.407 181.372 363.763 177.625 357.262L126.606 265.313C123.083 258.556 118.888 253.976 114.019 251.606C109.151 249.236 103.931 249.044 98.4544 251.029C92.4334 253.047 88.366 256.922 86.2522 262.687C84.1064 268.42 84.5548 274.921 87.5653 282.191L148.736 432.717C161.739 463.719 176.888 489.308 194.15 509.453C211.413 529.598 231.109 544.554 253.272 554.291C275.402 564.059 300.351 568.927 328.118 568.927C377.664 568.927 415.711 554.931 442.23 526.908C468.748 498.884 486.907 456.737 496.643 400.434ZM117.959 443.574L58.2929 296.475C54.0333 285.938 52.3359 275.946 53.2327 266.434C54.0974 256.922 57.1079 248.659 62.2322 241.645C67.3565 234.664 73.7938 229.155 81.5443 225.152C89.2948 221.373 97.7498 219.643 106.877 219.899C116.005 220.124 124.844 222.75 133.332 227.778C141.851 232.774 148.993 240.396 154.725 250.677L184.382 307.364C185.151 308.838 186.144 309.478 187.393 309.222C188.642 308.966 189.154 307.973 188.898 306.211L156.999 124.556C154.725 112.802 155.238 102.297 158.505 93.0414C161.739 83.7857 166.992 76.2594 174.262 70.5266C181.5 64.7618 189.891 61.1428 199.403 59.6375C208.915 58.1323 218.042 59.061 226.786 62.4559C235.561 65.8187 243.055 71.3913 249.332 79.1418C255.578 86.8923 259.965 96.5323 262.463 108.03L266.947 132.434V79.8784C266.947 63.3846 272.103 49.8694 282.352 39.3646C292.601 28.8598 305.603 23.6074 321.393 23.6074C337.886 23.6074 351.209 28.9879 361.362 39.7489C371.482 50.5099 376.543 64.3775 376.543 81.3837L375.806 97.5251C379.297 82.5366 386.631 71.3273 397.744 63.9291C408.89 56.5629 421.348 54.0008 435.088 56.2427C444.599 57.7479 453.055 61.3669 460.421 67.1318C467.819 72.8966 473.327 80.3268 476.946 89.4544C480.566 98.582 481.622 109.055 480.149 120.809L476.946 150.514C476.327 147.685 479.765 143.975 487.259 139.384C498.533 132.498 510.927 130.192 524.41 132.434C533.185 134.196 540.872 137.751 547.501 143.131C554.131 148.512 558.999 155.718 562.138 164.717C565.276 173.717 565.821 183.965 563.835 195.495L530.047 403.797C519.542 468.619 497.636 518.1 464.36 552.241C431.084 586.381 385.318 603.484 326.997 603.484C277.708 603.484 236.073 590.032 202.029 563.13C167.984 536.228 139.961 496.386 117.959 443.574Z" fill="black"/>
</g>
<defs>
<filter id="filter0_d_384_35" x="0.34" y="0.207422" width="617.32" height="685.197" filterUnits="userSpaceOnUse" color-interpolation-filters="sRGB">
<feFlood flood-opacity="0" result="BackgroundImageFix"/>
<feColorMatrix in="SourceAlpha" type="matrix" values="0 0 0 0 0 0 0 0 0 0 0 0 0 0 0 0 0 0 127 0" result="hardAlpha"/>
<feOffset dy="29.26"/>
<feGaussianBlur stdDeviation="26.33"/>
<feComposite in2="hardAlpha" operator="out"/>
<feColorMatrix type="matrix" values="0 0 0 0 0 0 0 0 0 0 0 0 0 0 0 0 0 0 0.65 0"/>
<feBlend mode="normal" in2="BackgroundImageFix" result="effect1_dropShadow_384_35"/>
<feBlend mode="normal" in="SourceGraphic" in2="effect1_dropShadow_384_35" result="shape"/>
</filter>
</defs>
</svg>
