<svg width="618" height="767" viewBox="0 0 618 767" fill="none" xmlns="http://www.w3.org/2000/svg">
<g filter="url(#filter0_d_384_39)">
<path fill-rule="evenodd" clip-rule="evenodd" d="M345.305 647.032C382.56 647.032 414.957 639.285 442.423 623.756C469.96 608.227 491.228 585.514 506.194 555.513C521.195 525.511 528.695 488.819 528.695 445.331V387.229C528.695 360.22 524.47 339.48 516.018 324.901C507.567 310.358 495.383 303.069 479.573 303.069V341.592C479.573 346.945 477.777 351.241 474.256 354.445C470.699 357.65 466.72 359.234 462.213 359.234C457.494 359.234 453.374 357.65 449.853 354.445C446.296 351.241 444.536 346.945 444.536 341.592V293.738C444.536 284.124 442.071 276.659 437.176 271.412C432.211 266.166 425.274 263.56 416.259 263.56C409.217 263.56 402.245 265.074 395.413 268.067V329.092C395.413 334.655 393.617 339.022 390.096 342.261C386.539 345.466 382.56 347.05 378.053 347.05C373.335 347.05 369.215 345.466 365.693 342.261C362.137 339.022 360.376 334.655 360.376 329.092V258.419C360.376 249.017 357.876 241.552 352.84 236.094C347.805 230.636 341.009 227.889 332.452 227.889C325.163 227.889 318.085 229.509 311.254 232.713V316.873C311.254 321.803 309.599 325.993 306.253 329.409C302.943 332.824 298.718 334.55 293.577 334.55C288.647 334.55 284.527 332.824 281.217 329.409C277.907 325.993 276.217 321.803 276.217 316.873V84.9938C276.217 77.0708 274.033 70.6972 269.632 65.873C265.265 61.0488 259.314 58.6543 251.814 58.6543C244.313 58.6543 238.292 61.0488 233.679 65.873C229.066 70.6972 226.777 77.0708 226.777 84.9938V411.631C226.777 418.498 224.735 424.097 220.685 428.499C216.601 432.865 211.459 435.048 205.262 435.048C199.663 435.048 194.698 433.675 190.331 430.893C185.93 428.111 182.232 422.97 179.239 415.47L136.209 317.19C130.856 304.337 122.793 297.928 112.123 297.928C105.256 297.928 99.6927 300.111 95.3967 304.513C91.1007 308.879 88.9879 314.197 88.9879 320.394C88.9879 325.535 89.9387 330.676 91.8754 335.817L149.379 497.693C168.182 550.16 194.346 588.12 227.728 611.713C261.145 635.271 300.338 647.032 345.305 647.032ZM344.037 684.287C289.175 684.287 242.553 669.603 204.135 640.306C165.682 610.973 136.314 567.379 115.961 509.559L58.458 347.367C56.7326 342.261 55.4297 336.909 54.4438 331.31C53.493 325.746 53 320.711 53 316.239C53 299.513 58.5637 286.589 69.7263 277.364C80.8184 268.173 93.9177 263.56 108.883 263.56C119.835 263.56 129.659 266.729 138.462 273.032C147.231 279.335 154.273 288.843 159.661 301.449L185.014 364.094C185.648 365.573 186.634 366.312 187.902 366.312C189.627 366.312 190.472 365.361 190.472 363.46V87.2123C190.472 67.7394 196.247 52.2807 207.832 40.8012C219.382 29.3569 234.031 23.6172 251.814 23.6172C269.385 23.6172 283.893 29.3569 295.337 40.8012C306.782 52.2807 312.521 67.7394 312.521 87.2123V196.761C320.867 194.401 329.001 193.204 336.959 193.204C350.657 193.204 362.313 196.796 371.961 203.979C381.574 211.163 388.335 220.952 392.209 233.382C402.033 229.967 411.682 228.241 421.119 228.241C434.359 228.241 445.557 231.586 454.642 238.347C463.762 245.073 470.03 254.228 473.446 265.814C502.532 266.025 525.103 276.307 541.055 296.625C557.007 316.978 565 345.572 565 382.369V449.521C565 499.172 555.668 541.533 537.041 576.535C518.413 611.572 492.496 638.228 459.325 656.68C426.119 675.097 387.701 684.287 344.037 684.287Z" fill="black"/>
<path fill-rule="evenodd" clip-rule="evenodd" d="M345.305 647.032C382.561 647.032 414.957 639.285 442.423 623.756C469.96 608.227 491.229 585.514 506.194 555.513C521.195 525.511 528.696 488.819 528.696 445.331V387.229C528.696 360.22 524.47 339.48 516.019 324.901C507.568 310.358 495.384 303.069 479.573 303.069V341.592C479.573 346.945 477.777 351.241 474.256 354.445C470.699 357.65 466.72 359.234 462.213 359.234C457.494 359.234 453.375 357.65 449.853 354.445C446.297 351.241 444.536 346.945 444.536 341.592V293.738C444.536 284.124 442.071 276.659 437.176 271.412C432.211 266.166 425.274 263.56 416.26 263.56C409.217 263.56 402.245 265.074 395.414 268.067V329.092C395.414 334.655 393.618 339.022 390.096 342.261C386.54 345.466 382.561 347.05 378.053 347.05C373.335 347.05 369.215 345.466 365.694 342.261C362.137 339.022 360.376 334.655 360.376 329.092V258.419C360.376 249.017 357.876 241.552 352.841 236.094C347.805 230.636 341.009 227.889 332.452 227.889C325.163 227.889 318.085 229.509 311.254 232.713V316.873C311.254 321.803 309.599 325.993 306.254 329.409C302.944 332.824 298.718 334.55 293.577 334.55C288.647 334.55 284.527 332.824 281.217 329.409C277.907 325.993 276.217 321.803 276.217 316.873V84.9938C276.217 77.0708 274.034 70.6972 269.632 65.873C265.266 61.0488 259.315 58.6543 251.814 58.6543C244.314 58.6543 238.292 61.0488 233.679 65.873C229.066 70.6972 226.778 77.0708 226.778 84.9938V411.631C226.778 418.498 224.735 424.097 220.686 428.499C216.601 432.865 211.46 435.048 205.262 435.048C199.663 435.048 194.698 433.675 190.332 430.893C185.93 428.111 182.233 422.97 179.24 415.47L136.209 317.19C130.857 304.337 122.793 297.928 112.123 297.928C105.257 297.928 99.6931 300.111 95.3971 304.513C91.1011 308.879 88.9883 314.197 88.9883 320.394C88.9883 325.535 89.939 330.676 91.8758 335.817L149.379 497.693C168.183 550.16 194.346 588.12 227.728 611.713C261.146 635.27 300.338 647.032 345.305 647.032Z" fill="white"/>
</g>
<defs>
<filter id="filter0_d_384_39" x="0.34" y="0.217188" width="617.32" height="765.99" filterUnits="userSpaceOnUse" color-interpolation-filters="sRGB">
<feFlood flood-opacity="0" result="BackgroundImageFix"/>
<feColorMatrix in="SourceAlpha" type="matrix" values="0 0 0 0 0 0 0 0 0 0 0 0 0 0 0 0 0 0 127 0" result="hardAlpha"/>
<feOffset dy="29.26"/>
<feGaussianBlur stdDeviation="26.33"/>
<feComposite in2="hardAlpha" operator="out"/>
<feColorMatrix type="matrix" values="0 0 0 0 0 0 0 0 0 0 0 0 0 0 0 0 0 0 0.65 0"/>
<feBlend mode="normal" in2="BackgroundImageFix" result="effect1_dropShadow_384_39"/>
<feBlend mode="normal" in="SourceGraphic" in2="effect1_dropShadow_384_39" result="shape"/>
</filter>
</defs>
</svg>
